<mxfile host="app.diagrams.net" agent="Mozilla/5.0 (Windows NT 10.0; Win64; x64) AppleWebKit/537.36 (KHTML, like Gecko) Chrome/131.0.0.0 Safari/537.36 Edg/131.0.0.0" version="25.0.3">
  <diagram name="Page-1" id="rBoenlcUSADPSqGxzTRe">
    <mxGraphModel dx="3914" dy="1842" grid="1" gridSize="10" guides="1" tooltips="1" connect="1" arrows="1" fold="1" page="1" pageScale="1" pageWidth="850" pageHeight="1100" math="0" shadow="0">
      <root>
        <mxCell id="0" />
        <mxCell id="1" parent="0" />
        <UserObject label="&lt;font color=&quot;#00ff00&quot;&gt;JornadasDeVacunación&lt;/font&gt;(&lt;font color=&quot;#ff0000&quot;&gt;id_jornada&lt;/font&gt;, &lt;font color=&quot;#6666ff&quot;&gt;fecha&lt;/font&gt;, &lt;font color=&quot;#6666ff&quot;&gt;lugar&lt;/font&gt;, tipoDeVacuna, CantidadVacunasDisponibles, Responsable)" placeholders="1" name="Variable" id="bTyeomzdHNcsFhFwKhSw-2">
          <mxCell style="text;html=1;strokeColor=none;fillColor=none;align=center;verticalAlign=middle;whiteSpace=wrap;overflow=hidden;" vertex="1" parent="1">
            <mxGeometry x="-570" y="80" width="797.5" height="20" as="geometry" />
          </mxCell>
        </UserObject>
        <UserObject label="&lt;font color=&quot;#ff0000&quot;&gt;JefesLaboratorio&lt;/font&gt;(&lt;font color=&quot;#ff0000&quot;&gt;id_jefe&lt;/font&gt;, nombre, apellido, telefono, &lt;font color=&quot;#6666ff&quot;&gt;CorreoElectronico&lt;/font&gt;)" placeholders="1" name="Variable" id="bTyeomzdHNcsFhFwKhSw-4">
          <mxCell style="text;html=1;strokeColor=none;fillColor=none;align=center;verticalAlign=middle;whiteSpace=wrap;overflow=hidden;" vertex="1" parent="1">
            <mxGeometry x="150" y="520" width="682.5" height="20" as="geometry" />
          </mxCell>
        </UserObject>
        <UserObject label="&lt;font color=&quot;#ff0000&quot;&gt;MediosComunicación&lt;/font&gt;(&lt;font color=&quot;#ff0000&quot;&gt;id_medio&lt;/font&gt;, &lt;font color=&quot;#6666ff&quot;&gt;Nombre&lt;/font&gt;, &lt;font color=&quot;#6666ff&quot;&gt;tipo&lt;/font&gt;, contaco, regionDeCobertura)" placeholders="1" name="Variable" id="bTyeomzdHNcsFhFwKhSw-5">
          <mxCell style="text;html=1;strokeColor=none;fillColor=none;align=center;verticalAlign=middle;whiteSpace=wrap;overflow=hidden;" vertex="1" parent="1">
            <mxGeometry x="370" y="100" width="647.5" height="20" as="geometry" />
          </mxCell>
        </UserObject>
        <UserObject label="&lt;font color=&quot;#6666ff&quot;&gt;Notificaciones&lt;/font&gt;(&lt;font color=&quot;#ff0000&quot;&gt;id_notificacion&lt;/font&gt;, &lt;font color=&quot;#6666ff&quot;&gt;fechaDeGeneracion&lt;/font&gt;, contenido, &lt;font color=&quot;#6666ff&quot;&gt;destinatario, &lt;/font&gt;&lt;font color=&quot;#00ff00&quot;&gt;id_jornada_notificaciones&lt;/font&gt;)" placeholders="1" name="Variable" id="bTyeomzdHNcsFhFwKhSw-6">
          <mxCell style="text;html=1;strokeColor=none;fillColor=none;align=center;verticalAlign=middle;whiteSpace=wrap;overflow=hidden;" vertex="1" parent="1">
            <mxGeometry x="50" y="220" width="620" height="20" as="geometry" />
          </mxCell>
        </UserObject>
        <UserObject label="&lt;font color=&quot;#00ff00&quot;&gt;ResultadosPruebas&lt;/font&gt;(&lt;font color=&quot;#ff0000&quot;&gt;id_resultado&lt;/font&gt;, resultado, fechaRegistro, observaciones)" placeholders="1" name="Variable" id="bTyeomzdHNcsFhFwKhSw-7">
          <mxCell style="text;html=1;strokeColor=none;fillColor=none;align=center;verticalAlign=middle;whiteSpace=wrap;overflow=hidden;" vertex="1" parent="1">
            <mxGeometry x="-480" y="400" width="735" height="20" as="geometry" />
          </mxCell>
        </UserObject>
        <UserObject label="&lt;font color=&quot;#00ff00&quot;&gt;PruebasDeLaboratorio&lt;/font&gt;(&lt;font color=&quot;#ff0000&quot;&gt;id_prueba&lt;/font&gt;, &lt;font color=&quot;#6666ff&quot;&gt;tipoDePrueba&lt;/font&gt;, &lt;font color=&quot;#6666ff&quot;&gt;fechaRealizacion&lt;/font&gt;, nombrePacientes, ResultadoPrevio, estado, &lt;font color=&quot;#00ff00&quot;&gt;id_diagnostico&lt;/font&gt;)" placeholders="1" name="Variable" id="bTyeomzdHNcsFhFwKhSw-8">
          <mxCell style="text;html=1;strokeColor=none;fillColor=none;align=center;verticalAlign=middle;whiteSpace=wrap;overflow=hidden;" vertex="1" parent="1">
            <mxGeometry x="90" y="330" width="770" height="20" as="geometry" />
          </mxCell>
        </UserObject>
        <UserObject label="&lt;font color=&quot;#6666ff&quot;&gt;Laboratorios&lt;/font&gt;(&lt;font color=&quot;#ff0000&quot;&gt;id_laboratorio&lt;/font&gt;, &lt;font color=&quot;#6666ff&quot;&gt;nombre&lt;/font&gt;, direccion, contacto, responsable)" placeholders="1" name="Variable" id="bTyeomzdHNcsFhFwKhSw-9">
          <mxCell style="text;html=1;strokeColor=none;fillColor=none;align=center;verticalAlign=middle;whiteSpace=wrap;overflow=hidden;" vertex="1" parent="1">
            <mxGeometry x="-430" y="650" width="640" height="20" as="geometry" />
          </mxCell>
        </UserObject>
        <UserObject label="&lt;font color=&quot;#00ff00&quot;&gt;RecepcionNotificaciones&lt;/font&gt;(&lt;font color=&quot;#ff0000&quot;&gt;id_recepcion&lt;/font&gt;, fechaDeRecepcion, Confirmacion,&lt;font color=&quot;#00ff00&quot;&gt;id_notificacion_recepcion&lt;/font&gt;)" placeholders="1" name="Variable" id="bTyeomzdHNcsFhFwKhSw-10">
          <mxCell style="text;html=1;strokeColor=none;fillColor=none;align=center;verticalAlign=middle;whiteSpace=wrap;overflow=hidden;" vertex="1" parent="1">
            <mxGeometry x="-540" y="260" width="570" height="20" as="geometry" />
          </mxCell>
        </UserObject>
        <UserObject label="Pacientes(nombre, apellidos, &lt;font color=&quot;#ff0000&quot;&gt;id&lt;/font&gt;, correo, metodosDePago, residencia)" placeholders="1" name="Variable" id="bTyeomzdHNcsFhFwKhSw-12">
          <mxCell style="text;html=1;strokeColor=none;fillColor=none;align=center;verticalAlign=middle;whiteSpace=wrap;overflow=hidden;" vertex="1" parent="1">
            <mxGeometry x="840" y="450" width="600" height="20" as="geometry" />
          </mxCell>
        </UserObject>
        <UserObject label="Diagnosticos(&lt;font color=&quot;#ff0000&quot;&gt;diagnostico_id&lt;/font&gt;, fechaDiagnostico, tipoDiagnostico, descripcion)" placeholders="1" name="Variable" id="bTyeomzdHNcsFhFwKhSw-13">
          <mxCell style="text;html=1;strokeColor=none;fillColor=none;align=center;verticalAlign=middle;whiteSpace=wrap;overflow=hidden;" vertex="1" parent="1">
            <mxGeometry x="820" y="610" width="730" height="20" as="geometry" />
          </mxCell>
        </UserObject>
        <UserObject label="Medicos(nombre, apellido, &lt;font color=&quot;#ff0000&quot;&gt;identificacion&lt;/font&gt;, correo, &lt;font color=&quot;#ff33ff&quot;&gt;telefono!&lt;/font&gt;, estado, numero, &lt;font color=&quot;#ff33ff&quot;&gt;numero_consultorio!&lt;/font&gt;)" placeholders="1" name="Variable" id="bTyeomzdHNcsFhFwKhSw-14">
          <mxCell style="text;html=1;strokeColor=none;fillColor=none;align=center;verticalAlign=middle;whiteSpace=wrap;overflow=hidden;" vertex="1" parent="1">
            <mxGeometry x="822.5" y="140" width="670" height="20" as="geometry" />
          </mxCell>
        </UserObject>
        <UserObject label="MGenerales(nombre, apellido, &lt;font color=&quot;#ff0000&quot;&gt;identificacion_&lt;/font&gt;&lt;font color=&quot;#00ff00&quot;&gt;m_general&lt;/font&gt;, correo, &lt;font color=&quot;#ff33ff&quot;&gt;telefono!&lt;/font&gt;, estado, area_atencion, &lt;font color=&quot;#ff33ff&quot;&gt;numero_consultorio!&lt;/font&gt;)" placeholders="1" name="Variable" id="bTyeomzdHNcsFhFwKhSw-15">
          <mxCell style="text;html=1;strokeColor=none;fillColor=none;align=center;verticalAlign=middle;whiteSpace=wrap;overflow=hidden;" vertex="1" parent="1">
            <mxGeometry x="822.5" y="290" width="822.5" height="20" as="geometry" />
          </mxCell>
        </UserObject>
        <UserObject label="Especialistas(nombre, apellido, &lt;font color=&quot;#ff0000&quot;&gt;identificacion_&lt;/font&gt;&lt;font color=&quot;#00ff00&quot;&gt;especialistas&lt;/font&gt;, correo, &lt;font color=&quot;#ff33ff&quot;&gt;telefono!&lt;/font&gt;, estado, especialidad, &lt;font color=&quot;#ff33ff&quot;&gt;numero_consultorio!&lt;/font&gt;)" placeholders="1" name="Variable" id="bTyeomzdHNcsFhFwKhSw-16">
          <mxCell style="text;html=1;strokeColor=none;fillColor=none;align=center;verticalAlign=middle;whiteSpace=wrap;overflow=hidden;" vertex="1" parent="1">
            <mxGeometry x="980" y="20" width="685" height="20" as="geometry" />
          </mxCell>
        </UserObject>
        <UserObject label="Medicamentos(nombre, &lt;font color=&quot;#ff0000&quot;&gt;id&lt;/font&gt;, unidades)" placeholders="1" name="Variable" id="bTyeomzdHNcsFhFwKhSw-17">
          <mxCell style="text;html=1;strokeColor=none;fillColor=none;align=center;verticalAlign=middle;whiteSpace=wrap;overflow=hidden;" vertex="1" parent="1">
            <mxGeometry x="345" y="630" width="365" height="20" as="geometry" />
          </mxCell>
        </UserObject>
        <mxCell id="bTyeomzdHNcsFhFwKhSw-18" value="" style="endArrow=classic;html=1;rounded=0;exitX=0.385;exitY=-0.036;exitDx=0;exitDy=0;exitPerimeter=0;" edge="1" parent="1" source="bTyeomzdHNcsFhFwKhSw-15">
          <mxGeometry width="50" height="50" relative="1" as="geometry">
            <mxPoint x="1132.5" y="290" as="sourcePoint" />
            <mxPoint x="1080" y="170" as="targetPoint" />
            <Array as="points">
              <mxPoint x="1140" y="280" />
              <mxPoint x="1080" y="280" />
              <mxPoint x="1080" y="240" />
            </Array>
          </mxGeometry>
        </mxCell>
        <mxCell id="bTyeomzdHNcsFhFwKhSw-19" value="" style="endArrow=classic;html=1;rounded=0;" edge="1" parent="1">
          <mxGeometry width="50" height="50" relative="1" as="geometry">
            <mxPoint x="1240" y="40" as="sourcePoint" />
            <mxPoint x="1080" y="130" as="targetPoint" />
            <Array as="points">
              <mxPoint x="1080" y="40" />
            </Array>
          </mxGeometry>
        </mxCell>
        <UserObject label="LaboratoriosTienenJefesLaboratorios(&lt;font color=&quot;#ff0000&quot;&gt;id&lt;/font&gt;_&lt;font color=&quot;#00ff00&quot;&gt;laboratorio&lt;/font&gt;, &lt;font color=&quot;#ff0000&quot;&gt;id&lt;/font&gt;_&lt;font color=&quot;#00ff00&quot;&gt;jefe&lt;/font&gt;)&lt;div&gt;&lt;br&gt;&lt;/div&gt;" placeholders="1" name="Variable" id="bTyeomzdHNcsFhFwKhSw-23">
          <mxCell style="text;html=1;strokeColor=none;fillColor=none;align=center;verticalAlign=middle;whiteSpace=wrap;overflow=hidden;" vertex="1" parent="1">
            <mxGeometry x="-280" y="580" width="660" height="20" as="geometry" />
          </mxCell>
        </UserObject>
        <mxCell id="bTyeomzdHNcsFhFwKhSw-24" value="" style="endArrow=classic;html=1;rounded=0;" edge="1" parent="1">
          <mxGeometry width="50" height="50" relative="1" as="geometry">
            <mxPoint x="120" y="600" as="sourcePoint" />
            <mxPoint x="-200" y="640" as="targetPoint" />
            <Array as="points">
              <mxPoint x="-200" y="600" />
            </Array>
          </mxGeometry>
        </mxCell>
        <mxCell id="bTyeomzdHNcsFhFwKhSw-25" value="" style="endArrow=classic;html=1;rounded=0;entryX=0.395;entryY=1.175;entryDx=0;entryDy=0;entryPerimeter=0;" edge="1" parent="1" target="bTyeomzdHNcsFhFwKhSw-4">
          <mxGeometry width="50" height="50" relative="1" as="geometry">
            <mxPoint x="190" y="580" as="sourcePoint" />
            <mxPoint x="420" y="550" as="targetPoint" />
            <Array as="points">
              <mxPoint x="420" y="580" />
            </Array>
          </mxGeometry>
        </mxCell>
        <UserObject label="LaboratoriosGeneranMedicamentos(&lt;font color=&quot;#ff0000&quot;&gt;id_&lt;/font&gt;&lt;font color=&quot;#00ff00&quot;&gt;laboratorio&lt;/font&gt;, &lt;font color=&quot;#ff0000&quot;&gt;id_&lt;/font&gt;&lt;font color=&quot;#00ff00&quot;&gt;medicamentos&lt;/font&gt;)" placeholders="1" name="Variable" id="bTyeomzdHNcsFhFwKhSw-26">
          <mxCell style="text;html=1;strokeColor=none;fillColor=none;align=center;verticalAlign=middle;whiteSpace=wrap;overflow=hidden;" vertex="1" parent="1">
            <mxGeometry x="-120" y="790" width="740" height="20" as="geometry" />
          </mxCell>
        </UserObject>
        <mxCell id="bTyeomzdHNcsFhFwKhSw-27" value="" style="endArrow=classic;html=1;rounded=0;" edge="1" parent="1">
          <mxGeometry width="50" height="50" relative="1" as="geometry">
            <mxPoint x="280" y="790" as="sourcePoint" />
            <mxPoint x="-200" y="680" as="targetPoint" />
            <Array as="points">
              <mxPoint x="280" y="760" />
              <mxPoint x="-200" y="760" />
            </Array>
          </mxGeometry>
        </mxCell>
        <mxCell id="bTyeomzdHNcsFhFwKhSw-28" value="" style="endArrow=classic;html=1;rounded=0;" edge="1" parent="1">
          <mxGeometry width="50" height="50" relative="1" as="geometry">
            <mxPoint x="400" y="790" as="sourcePoint" />
            <mxPoint x="560" y="660" as="targetPoint" />
            <Array as="points">
              <mxPoint x="560" y="790" />
            </Array>
          </mxGeometry>
        </mxCell>
        <mxCell id="bTyeomzdHNcsFhFwKhSw-29" value="" style="endArrow=classic;html=1;rounded=0;exitX=0.909;exitY=1.045;exitDx=0;exitDy=0;exitPerimeter=0;entryX=0.357;entryY=-0.058;entryDx=0;entryDy=0;entryPerimeter=0;" edge="1" parent="1" source="bTyeomzdHNcsFhFwKhSw-8" target="bTyeomzdHNcsFhFwKhSw-13">
          <mxGeometry width="50" height="50" relative="1" as="geometry">
            <mxPoint x="782.5" y="350" as="sourcePoint" />
            <mxPoint x="1080" y="600" as="targetPoint" />
            <Array as="points">
              <mxPoint x="790" y="580" />
              <mxPoint x="1080" y="580" />
            </Array>
          </mxGeometry>
        </mxCell>
        <mxCell id="bTyeomzdHNcsFhFwKhSw-30" value="" style="endArrow=classic;html=1;rounded=0;" edge="1" parent="1">
          <mxGeometry width="50" height="50" relative="1" as="geometry">
            <mxPoint x="560" y="220" as="sourcePoint" />
            <mxPoint x="-300" y="110" as="targetPoint" />
            <Array as="points">
              <mxPoint x="560" y="200" />
              <mxPoint x="-300" y="200" />
            </Array>
          </mxGeometry>
        </mxCell>
        <mxCell id="bTyeomzdHNcsFhFwKhSw-31" value="" style="endArrow=classic;html=1;rounded=0;entryX=0.25;entryY=1;entryDx=0;entryDy=0;" edge="1" parent="1" target="bTyeomzdHNcsFhFwKhSw-6">
          <mxGeometry width="50" height="50" relative="1" as="geometry">
            <mxPoint x="-60" y="260" as="sourcePoint" />
            <mxPoint x="-10" y="210" as="targetPoint" />
            <Array as="points">
              <mxPoint x="205" y="260" />
            </Array>
          </mxGeometry>
        </mxCell>
        <UserObject label="JefesLaboratoriosRegistraResultadosPruebas(&lt;font color=&quot;#ff0000&quot;&gt;id_&lt;/font&gt;&lt;font color=&quot;#00ff00&quot;&gt;resultado&lt;/font&gt;, &lt;font color=&quot;#ff0000&quot;&gt;id_&lt;/font&gt;&lt;font color=&quot;#00ff00&quot;&gt;jefe&lt;/font&gt;)" placeholders="1" name="Variable" id="bTyeomzdHNcsFhFwKhSw-32">
          <mxCell style="text;html=1;strokeColor=none;fillColor=none;align=center;verticalAlign=middle;whiteSpace=wrap;overflow=hidden;" vertex="1" parent="1">
            <mxGeometry x="-115" y="460" width="540" height="20" as="geometry" />
          </mxCell>
        </UserObject>
        <mxCell id="bTyeomzdHNcsFhFwKhSw-33" value="" style="endArrow=classic;html=1;rounded=0;entryX=0.428;entryY=1.08;entryDx=0;entryDy=0;entryPerimeter=0;" edge="1" parent="1" target="bTyeomzdHNcsFhFwKhSw-7">
          <mxGeometry width="50" height="50" relative="1" as="geometry">
            <mxPoint x="255" y="460" as="sourcePoint" />
            <mxPoint x="305" y="410" as="targetPoint" />
            <Array as="points">
              <mxPoint x="-165" y="460" />
            </Array>
          </mxGeometry>
        </mxCell>
        <mxCell id="bTyeomzdHNcsFhFwKhSw-34" value="" style="endArrow=classic;html=1;rounded=0;entryX=0.385;entryY=-0.18;entryDx=0;entryDy=0;entryPerimeter=0;" edge="1" parent="1" target="bTyeomzdHNcsFhFwKhSw-4">
          <mxGeometry width="50" height="50" relative="1" as="geometry">
            <mxPoint x="320" y="485" as="sourcePoint" />
            <mxPoint x="370" y="435" as="targetPoint" />
            <Array as="points">
              <mxPoint x="410" y="485" />
            </Array>
          </mxGeometry>
        </mxCell>
      </root>
    </mxGraphModel>
  </diagram>
</mxfile>
